<svg width="153" height="19" viewBox="0 0 153 19" fill="none" xmlns="http://www.w3.org/2000/svg">
<path d="M1.84439 18C1.60972 18 1.40439 17.9193 1.22839 17.758C1.06706 17.582 0.986391 17.3767 0.986391 17.142V1.676C0.986391 1.42667 1.06706 1.22133 1.22839 1.06C1.38972 0.898666 1.59506 0.818 1.84439 0.818H12.1624C12.4117 0.818 12.6171 0.898666 12.7784 1.06C12.9397 1.20667 13.0204 1.40467 13.0204 1.654C13.0204 1.874 12.9397 2.06467 12.7784 2.226C12.6171 2.38733 12.4117 2.468 12.1624 2.468H2.70239V8.54H9.58839C9.83772 8.54 10.0431 8.62067 10.2044 8.782C10.3657 8.94333 10.4464 9.14133 10.4464 9.376C10.4464 9.61067 10.3657 9.80867 10.2044 9.97C10.0431 10.1313 9.83772 10.212 9.58839 10.212H2.70239V17.142C2.70239 17.3767 2.62172 17.582 2.46039 17.758C2.29906 17.9193 2.09372 18 1.84439 18ZM21.3584 18.11C20.1851 18.11 19.1364 17.846 18.2124 17.318C17.2884 16.79 16.5624 16.064 16.0344 15.14C15.5064 14.216 15.2424 13.1673 15.2424 11.994C15.2424 10.806 15.5064 9.75 16.0344 8.826C16.5624 7.902 17.2884 7.176 18.2124 6.648C19.1364 6.12 20.1851 5.856 21.3584 5.856C22.5317 5.856 23.5731 6.12 24.4824 6.648C25.4064 7.176 26.1324 7.902 26.6604 8.826C27.1884 9.75 27.4597 10.806 27.4744 11.994C27.4744 13.1673 27.2031 14.216 26.6604 15.14C26.1324 16.064 25.4064 16.79 24.4824 17.318C23.5731 17.846 22.5317 18.11 21.3584 18.11ZM21.3584 16.57C22.2091 16.57 22.9717 16.372 23.6464 15.976C24.3211 15.58 24.8491 15.0373 25.2304 14.348C25.6117 13.6587 25.8024 12.874 25.8024 11.994C25.8024 11.114 25.6117 10.3293 25.2304 9.64C24.8491 8.936 24.3211 8.386 23.6464 7.99C22.9717 7.594 22.2091 7.396 21.3584 7.396C20.5077 7.396 19.7451 7.594 19.0704 7.99C18.3957 8.386 17.8604 8.936 17.4644 9.64C17.0831 10.3293 16.8924 11.114 16.8924 11.994C16.8924 12.874 17.0831 13.6587 17.4644 14.348C17.8604 15.0373 18.3957 15.58 19.0704 15.976C19.7451 16.372 20.5077 16.57 21.3584 16.57ZM36.2471 18.11C35.0737 18.11 34.0251 17.846 33.1011 17.318C32.1771 16.79 31.4511 16.064 30.9231 15.14C30.3951 14.216 30.1311 13.1673 30.1311 11.994C30.1311 10.806 30.3951 9.75 30.9231 8.826C31.4511 7.902 32.1771 7.176 33.1011 6.648C34.0251 6.12 35.0737 5.856 36.2471 5.856C37.4204 5.856 38.4617 6.12 39.3711 6.648C40.2951 7.176 41.0211 7.902 41.5491 8.826C42.0771 9.75 42.3484 10.806 42.3631 11.994C42.3631 13.1673 42.0917 14.216 41.5491 15.14C41.0211 16.064 40.2951 16.79 39.3711 17.318C38.4617 17.846 37.4204 18.11 36.2471 18.11ZM36.2471 16.57C37.0977 16.57 37.8604 16.372 38.5351 15.976C39.2097 15.58 39.7377 15.0373 40.1191 14.348C40.5004 13.6587 40.6911 12.874 40.6911 11.994C40.6911 11.114 40.5004 10.3293 40.1191 9.64C39.7377 8.936 39.2097 8.386 38.5351 7.99C37.8604 7.594 37.0977 7.396 36.2471 7.396C35.3964 7.396 34.6337 7.594 33.9591 7.99C33.2844 8.386 32.7491 8.936 32.3531 9.64C31.9717 10.3293 31.7811 11.114 31.7811 11.994C31.7811 12.874 31.9717 13.6587 32.3531 14.348C32.7491 15.0373 33.2844 15.58 33.9591 15.976C34.6337 16.372 35.3964 16.57 36.2471 16.57ZM51.1357 18.11C49.9771 18.11 48.9357 17.846 48.0117 17.318C47.0877 16.7753 46.3544 16.042 45.8117 15.118C45.2837 14.194 45.0197 13.1453 45.0197 11.972C45.0197 10.8133 45.2764 9.772 45.7897 8.848C46.3177 7.924 47.0291 7.198 47.9237 6.67C48.8184 6.12733 49.8304 5.856 50.9597 5.856C51.9424 5.856 52.8297 6.06867 53.6217 6.494C54.4137 6.90467 55.0517 7.45467 55.5357 8.144V1.676C55.5357 1.412 55.6164 1.20667 55.7777 1.06C55.9391 0.898666 56.1444 0.818 56.3937 0.818C56.6431 0.818 56.8484 0.898666 57.0097 1.06C57.1711 1.20667 57.2517 1.412 57.2517 1.676V12.06C57.2224 13.204 56.9364 14.238 56.3937 15.162C55.8657 16.0713 55.1397 16.79 54.2157 17.318C53.3064 17.846 52.2797 18.11 51.1357 18.11ZM51.1357 16.57C51.9864 16.57 52.7417 16.372 53.4017 15.976C54.0764 15.5653 54.6044 15.0153 54.9857 14.326C55.3817 13.6367 55.5797 12.852 55.5797 11.972C55.5797 11.1067 55.3817 10.3293 54.9857 9.64C54.6044 8.936 54.0764 8.386 53.4017 7.99C52.7417 7.594 51.9864 7.396 51.1357 7.396C50.2997 7.396 49.5444 7.594 48.8697 7.99C48.1951 8.386 47.6597 8.936 47.2637 9.64C46.8677 10.3293 46.6697 11.1067 46.6697 11.972C46.6697 12.852 46.8677 13.6367 47.2637 14.326C47.6597 15.0153 48.1951 15.5653 48.8697 15.976C49.5444 16.372 50.2997 16.57 51.1357 16.57ZM67.3717 18C67.1371 18 66.9317 17.9193 66.7557 17.758C66.5944 17.582 66.5137 17.3767 66.5137 17.142V1.676C66.5137 1.42667 66.5944 1.22133 66.7557 1.06C66.9171 0.898666 67.1224 0.818 67.3717 0.818H77.6897C77.9391 0.818 78.1444 0.898666 78.3057 1.06C78.4671 1.20667 78.5477 1.40467 78.5477 1.654C78.5477 1.874 78.4671 2.06467 78.3057 2.226C78.1444 2.38733 77.9391 2.468 77.6897 2.468H68.2297V8.54H75.1157C75.3651 8.54 75.5704 8.62067 75.7317 8.782C75.8931 8.94333 75.9737 9.14133 75.9737 9.376C75.9737 9.61067 75.8931 9.80867 75.7317 9.97C75.5704 10.1313 75.3651 10.212 75.1157 10.212H68.2297V17.142C68.2297 17.3767 68.1491 17.582 67.9877 17.758C67.8264 17.9193 67.6211 18 67.3717 18ZM86.8637 18.11C85.6757 18.11 84.6197 17.8533 83.6957 17.34C82.7864 16.812 82.0677 16.086 81.5397 15.162C81.0264 14.238 80.7697 13.182 80.7697 11.994C80.7697 10.7913 81.0117 9.73533 81.4957 8.826C81.9944 7.902 82.6764 7.176 83.5417 6.648C84.4071 6.12 85.4044 5.856 86.5337 5.856C87.6484 5.856 88.6164 6.11267 89.4377 6.626C90.2737 7.12467 90.9191 7.82133 91.3737 8.716C91.8284 9.61067 92.0557 10.63 92.0557 11.774C92.0557 12.0087 91.9824 12.1993 91.8357 12.346C91.6891 12.478 91.4984 12.544 91.2637 12.544H81.9137V11.136H91.4397L90.4937 11.818C90.5084 10.9673 90.3544 10.2047 90.0317 9.53C89.7091 8.85533 89.2471 8.32733 88.6457 7.946C88.0591 7.56467 87.3551 7.374 86.5337 7.374C85.6977 7.374 84.9644 7.572 84.3337 7.968C83.7031 8.364 83.2117 8.914 82.8597 9.618C82.5224 10.3073 82.3537 11.0993 82.3537 11.994C82.3537 12.8887 82.5444 13.6807 82.9257 14.37C83.3217 15.0593 83.8571 15.602 84.5317 15.998C85.2064 16.394 85.9837 16.592 86.8637 16.592C87.3917 16.592 87.9197 16.504 88.4477 16.328C88.9904 16.1373 89.4231 15.9027 89.7457 15.624C89.9071 15.492 90.0904 15.426 90.2957 15.426C90.5011 15.4113 90.6771 15.4627 90.8237 15.58C91.0144 15.756 91.1097 15.9467 91.1097 16.152C91.1244 16.3573 91.0437 16.5333 90.8677 16.68C90.3837 17.0907 89.7677 17.4353 89.0197 17.714C88.2717 17.978 87.5531 18.11 86.8637 18.11ZM99.7937 18.11C98.6644 18.11 97.6524 17.846 96.7577 17.318C95.8631 16.7753 95.1517 16.042 94.6237 15.118C94.1104 14.194 93.8537 13.1527 93.8537 11.994C93.8537 10.8207 94.1177 9.772 94.6457 8.848C95.1884 7.924 95.9217 7.198 96.8457 6.67C97.7697 6.12733 98.8111 5.856 99.9697 5.856C101.128 5.856 102.162 6.12733 103.072 6.67C103.996 7.198 104.722 7.924 105.25 8.848C105.792 9.772 106.071 10.8207 106.086 11.994L105.404 12.522C105.404 13.578 105.154 14.5313 104.656 15.382C104.172 16.218 103.504 16.8853 102.654 17.384C101.818 17.868 100.864 18.11 99.7937 18.11ZM99.9697 16.57C100.82 16.57 101.576 16.372 102.236 15.976C102.91 15.58 103.438 15.0373 103.82 14.348C104.216 13.644 104.414 12.8593 104.414 11.994C104.414 11.114 104.216 10.3293 103.82 9.64C103.438 8.95067 102.91 8.408 102.236 8.012C101.576 7.60133 100.82 7.396 99.9697 7.396C99.1337 7.396 98.3784 7.60133 97.7037 8.012C97.0291 8.408 96.4937 8.95067 96.0977 9.64C95.7017 10.3293 95.5037 11.114 95.5037 11.994C95.5037 12.8593 95.7017 13.644 96.0977 14.348C96.4937 15.0373 97.0291 15.58 97.7037 15.976C98.3784 16.372 99.1337 16.57 99.9697 16.57ZM105.228 18C104.978 18 104.773 17.9267 104.612 17.78C104.45 17.6187 104.37 17.4133 104.37 17.164V13.402L104.788 11.664L106.086 11.994V17.164C106.086 17.4133 106.005 17.6187 105.844 17.78C105.682 17.9267 105.477 18 105.228 18ZM114.088 18C113.311 18 112.614 17.8167 111.998 17.45C111.397 17.0833 110.92 16.5847 110.568 15.954C110.216 15.3087 110.04 14.5753 110.04 13.754V2.996C110.04 2.74667 110.114 2.54133 110.26 2.38C110.422 2.21867 110.627 2.138 110.876 2.138C111.126 2.138 111.331 2.21867 111.492 2.38C111.654 2.54133 111.734 2.74667 111.734 2.996V13.754C111.734 14.502 111.954 15.118 112.394 15.602C112.834 16.0713 113.399 16.306 114.088 16.306H114.682C114.917 16.306 115.108 16.3867 115.254 16.548C115.401 16.7093 115.474 16.9147 115.474 17.164C115.474 17.4133 115.386 17.6187 115.21 17.78C115.034 17.9267 114.814 18 114.55 18H114.088ZM108.61 7.88C108.39 7.88 108.207 7.814 108.06 7.682C107.914 7.53533 107.84 7.35933 107.84 7.154C107.84 6.934 107.914 6.758 108.06 6.626C108.207 6.47933 108.39 6.406 108.61 6.406H114.22C114.44 6.406 114.624 6.47933 114.77 6.626C114.917 6.758 114.99 6.934 114.99 7.154C114.99 7.35933 114.917 7.53533 114.77 7.682C114.624 7.814 114.44 7.88 114.22 7.88H108.61ZM123.468 18.132C122.427 18.132 121.495 17.9193 120.674 17.494C119.853 17.054 119.2 16.416 118.716 15.58C118.247 14.744 118.012 13.7247 118.012 12.522V6.802C118.012 6.56733 118.093 6.36933 118.254 6.208C118.415 6.04667 118.613 5.966 118.848 5.966C119.097 5.966 119.303 6.04667 119.464 6.208C119.625 6.36933 119.706 6.56733 119.706 6.802V12.522C119.706 13.4313 119.875 14.1793 120.212 14.766C120.564 15.3527 121.033 15.7927 121.62 16.086C122.221 16.3793 122.896 16.526 123.644 16.526C124.363 16.526 125.008 16.3867 125.58 16.108C126.167 15.8293 126.629 15.448 126.966 14.964C127.303 14.48 127.472 13.93 127.472 13.314H128.682C128.638 14.238 128.381 15.0667 127.912 15.8C127.457 16.5187 126.841 17.0907 126.064 17.516C125.287 17.9267 124.421 18.132 123.468 18.132ZM128.308 18C128.059 18 127.853 17.9267 127.692 17.78C127.545 17.6187 127.472 17.406 127.472 17.142V6.802C127.472 6.55267 127.545 6.35467 127.692 6.208C127.853 6.04667 128.059 5.966 128.308 5.966C128.557 5.966 128.763 6.04667 128.924 6.208C129.085 6.35467 129.166 6.55267 129.166 6.802V17.142C129.166 17.406 129.085 17.6187 128.924 17.78C128.763 17.9267 128.557 18 128.308 18ZM133.825 10.586C133.869 9.67667 134.103 8.86267 134.529 8.144C134.969 7.42533 135.533 6.86067 136.223 6.45C136.927 6.03933 137.704 5.834 138.555 5.834C139.229 5.834 139.75 5.92933 140.117 6.12C140.483 6.31067 140.623 6.58933 140.535 6.956C140.476 7.176 140.373 7.32267 140.227 7.396C140.095 7.46933 139.926 7.49867 139.721 7.484C139.53 7.46933 139.31 7.45467 139.061 7.44C138.239 7.36667 137.506 7.45467 136.861 7.704C136.23 7.93867 135.724 8.30533 135.343 8.804C134.976 9.30267 134.793 9.89667 134.793 10.586H133.825ZM133.957 18C133.693 18 133.487 17.9267 133.341 17.78C133.194 17.6333 133.121 17.428 133.121 17.164V6.802C133.121 6.538 133.194 6.33267 133.341 6.186C133.487 6.03933 133.693 5.966 133.957 5.966C134.221 5.966 134.426 6.03933 134.573 6.186C134.719 6.33267 134.793 6.538 134.793 6.802V17.164C134.793 17.428 134.719 17.6333 134.573 17.78C134.426 17.9267 134.221 18 133.957 18ZM147.772 18.11C146.584 18.11 145.528 17.8533 144.604 17.34C143.695 16.812 142.976 16.086 142.448 15.162C141.935 14.238 141.678 13.182 141.678 11.994C141.678 10.7913 141.92 9.73533 142.404 8.826C142.903 7.902 143.585 7.176 144.45 6.648C145.315 6.12 146.313 5.856 147.442 5.856C148.557 5.856 149.525 6.11267 150.346 6.626C151.182 7.12467 151.827 7.82133 152.282 8.716C152.737 9.61067 152.964 10.63 152.964 11.774C152.964 12.0087 152.891 12.1993 152.744 12.346C152.597 12.478 152.407 12.544 152.172 12.544H142.822V11.136H152.348L151.402 11.818C151.417 10.9673 151.263 10.2047 150.94 9.53C150.617 8.85533 150.155 8.32733 149.554 7.946C148.967 7.56467 148.263 7.374 147.442 7.374C146.606 7.374 145.873 7.572 145.242 7.968C144.611 8.364 144.12 8.914 143.768 9.618C143.431 10.3073 143.262 11.0993 143.262 11.994C143.262 12.8887 143.453 13.6807 143.834 14.37C144.23 15.0593 144.765 15.602 145.44 15.998C146.115 16.394 146.892 16.592 147.772 16.592C148.3 16.592 148.828 16.504 149.356 16.328C149.899 16.1373 150.331 15.9027 150.654 15.624C150.815 15.492 150.999 15.426 151.204 15.426C151.409 15.4113 151.585 15.4627 151.732 15.58C151.923 15.756 152.018 15.9467 152.018 16.152C152.033 16.3573 151.952 16.5333 151.776 16.68C151.292 17.0907 150.676 17.4353 149.928 17.714C149.18 17.978 148.461 18.11 147.772 18.11Z" fill="white"/>
</svg>
