<svg width="47" height="39" viewBox="0 0 47 39" fill="none" xmlns="http://www.w3.org/2000/svg">
<path d="M20.4231 1.50293H1.11096V18.3298H12.0957C11.9944 28.8078 2.19 30.7869 2.19 30.7869C2.19 30.7869 2.13832 31.1377 2.19 37.498C18.5358 34.3754 20.2763 22.1316 20.4179 18.3298H20.4221V18.2248C20.4438 17.5744 20.4221 17.1669 20.4221 17.1669L20.4231 1.50293Z" fill="#A2AEDB"/>
<path d="M46.9896 17.1658V1.50293H27.6786V18.3298H38.6643C38.563 28.8078 28.7585 30.7869 28.7585 30.7869C28.7585 30.7869 28.7071 31.1377 28.7585 37.498C45.1043 34.3754 46.8449 22.1316 46.9867 18.3298H46.9906V18.2248C47.0115 17.5744 46.9896 17.1658 46.9896 17.1658Z" fill="#A2AEDB"/>
</svg>
